<?xml version="1.0"?>
<svg xmlns="http://www.w3.org/2000/svg" viewBox="0 0 512 512" width="512" height="512"><g id="Outline"><path d="M128,392H368a8,8,0,0,0,7.822-6.324l47.892-223.5,38.373-44.989a8,8,0,0,0-.92-11.3l-104-88a8,8,0,0,0-11.2.856l-97.42,112,12.072,10.5L352.857,35.205,373.51,52.681,338.131,92.929a8,8,0,0,0,4.95,13.211l9.011,1.2,2.35,8.776a8,8,0,0,0,6.662,5.86l9.007,1.209,2.351,8.782a8,8,0,0,0,13.737,3.213l36.176-41.155L444.7,112.919,411.367,152h-308.9L79.976,47.04A32.039,32.039,0,1,0,68.988,72.125L134.1,376H128a32,32,0,0,0,0,64h4.305a32,32,0,1,0,55.39,0h136.61A31.989,31.989,0,1,0,352,424H128a16,16,0,0,1,0-32Zm256.038-278.6a8,8,0,0,0-6.513-5.364l-9.006-1.21-2.352-8.78a8,8,0,0,0-6.159-5.776l25.718-29.257,24.433,20.673ZM139.929,280h32.882l4.286,40h-8.332l-34.7-33.252Zm48.71-56H248v40H187.189l-3.657-34.129ZM264,320V280h38.191l-34.118,40Zm-16,0H193.189L188.9,280H248Zm-76.9-56H153.846l15.359-17.657ZM194.9,336H248v7.534l-24.586,28.825-27.431-26.282Zm9.184,40h-4.9l-.561-5.229ZM248,368.19V376h-6.662Zm16-18.759L275.456,336H317.1l-4.286,40H264ZM289.1,320l33.976-39.834L318.811,320Zm50.086-40H382.1l-8.571,40H334.9Zm1.714-16,.58-5.411L370.985,224H394.1l-8.571,40Zm3.6-33.608.685-6.392h4.767Zm-18.4,21.577L315.838,264H264V224h65.1ZM264,208V168h71.1l-4.286,40Zm-16,0H202.556l34.793-40H248Zm-66.649,0h-.162L176.9,168h39.24Zm-14.472,16.637L132.641,264h-6.174L117.9,224h48.915ZM145.638,320h-7.171l-1.852-8.646Zm16.7,16L180.7,353.589,183.1,376h-32.63L141.9,336Zm199.2,40H328.9l4.286-40H370.1Zm36-168h-12.9l17.228-20.2Zm-33.93,0H346.9l4.286-40H397.72ZM160.811,168l4.286,40h-50.63L105.9,168ZM48,64A16,16,0,1,1,64,48,16.019,16.019,0,0,1,48,64ZM176,456a16,16,0,1,1-16-16A16.019,16.019,0,0,1,176,456Zm192,0a16,16,0,1,1-16-16A16.019,16.019,0,0,1,368,456Z"/></g></svg>
