<?xml version="1.0" encoding="UTF-8" standalone="no"?>
<!-- Created with Inkscape (http://www.inkscape.org/) -->

<svg
   version="1.1"
   id="svg525"
   xml:space="preserve"
   width="682.66669"
   height="682.66669"
   viewBox="0 0 682.66669 682.66669"
   xmlns="http://www.w3.org/2000/svg"
   xmlns:svg="http://www.w3.org/2000/svg"><defs
     id="defs529"><clipPath
       clipPathUnits="userSpaceOnUse"
       id="clipPath539"><path
         d="M 0,512 H 512 V 0 H 0 Z"
         id="path537" /></clipPath></defs><g
     id="g531"
     transform="matrix(1.3333333,0,0,-1.3333333,0,682.66667)"><g
       id="g533"><g
         id="g535"
         clip-path="url(#clipPath539)"><g
           id="g541"
           transform="translate(250.3057,7.5)"><path
             d="m 0,0 h 89.855 v 38.251 l 20.968,74.675 c 7.57,26.956 7.852,55.433 0.821,82.535 l -9.254,35.646 c -2.23,8.578 -9.962,14.559 -18.823,14.559 H 83.26 c -4.572,0 -8.775,-1.572 -12.09,-4.212 -3.202,-2.538 -5.578,-6.071 -6.68,-10.127 -0.381,-1.639 -0.638,-2.483 -0.684,-5.097 v 7.389 c 0,5.37 -2.177,10.229 -5.696,13.746 -3.517,3.517 -8.377,5.692 -13.743,5.692 H 41.3 c -10.739,0 -19.437,-8.697 -19.438,-19.436 v 11.361 c 0,6.305 -3.003,11.907 -7.653,15.46 -3.191,2.698 -9.106,4.396 -14.852,3.987 -10.223,0 -18.59,-7.892 -19.372,-17.915 -0.097,-0.083 -0.058,-9.31 -0.065,-9.775 0,0.49 -0.024,0.973 -0.06,1.453 v 94.927 c 0,10.726 -8.695,19.421 -19.421,19.421 -10.725,0 -19.419,-8.695 -19.419,-19.421 V 236.25 193.122 c 0,2.899 -0.743,8.128 -4.842,12.808 -2.937,3.352 -8.218,6.611 -14.579,6.611 -9.869,0 -18.173,-7.391 -19.301,-17.191 l -9.861,-85.38 c -0.245,-2.127 -0.357,-4.251 -0.339,-6.363 0,-0.012 0.001,-0.024 0.001,-0.037 0.009,-1.014 0.048,-2.026 0.118,-3.033 0.782,-11.495 5.398,-22.442 13.147,-31.041 0.749,-0.832 1.525,-1.642 2.332,-2.428 0.761,-0.741 1.548,-1.462 2.36,-2.159 L -58.98,38.251 V 0 h 23.076"
             style="fill:none;stroke:#000000;stroke-width:15;stroke-linecap:round;stroke-linejoin:round;stroke-miterlimit:10;stroke-dasharray:none;stroke-opacity:1"
             id="path543" /></g><g
           id="g545"
           transform="translate(191.3252,200.6221)"><path
             d="M 0,0 V -63.228"
             style="fill:none;stroke:#000000;stroke-width:15;stroke-linecap:round;stroke-linejoin:round;stroke-miterlimit:10;stroke-dasharray:none;stroke-opacity:1"
             id="path547" /></g><g
           id="g549"
           transform="translate(125.1055,282.7754)"><path
             d="M 0,0 H -105.937 V 196.803 H 0"
             style="fill:none;stroke:#000000;stroke-width:15;stroke-linecap:round;stroke-linejoin:round;stroke-miterlimit:10;stroke-dasharray:none;stroke-opacity:1"
             id="path551" /></g><g
           id="g553"
           transform="translate(418.5859,282.7754)"><path
             d="M 0,0 H 74.247 V 196.803 H -35.26"
             style="fill:none;stroke:#000000;stroke-width:15;stroke-linecap:round;stroke-linejoin:round;stroke-miterlimit:10;stroke-dasharray:none;stroke-opacity:1"
             id="path555" /></g><g
           id="g557"
           transform="translate(357.3965,220.5171)"><path
             d="M 0,0 H 25.93 V 283.983 H -232.291 V 0 h 66.224"
             style="fill:none;stroke:#000000;stroke-width:15;stroke-linecap:round;stroke-linejoin:round;stroke-miterlimit:10;stroke-dasharray:none;stroke-opacity:1"
             id="path559" /></g><g
           id="g561"
           transform="translate(230.1602,340.6226)"><path
             d="m 0,0 h 75.731 c 8.149,0 14.761,-6.612 14.761,-14.771 v -14.407 c 0,-8.148 -6.612,-14.76 -14.761,-14.76 h -41.05"
             style="fill:none;stroke:#000000;stroke-width:15;stroke-linecap:round;stroke-linejoin:round;stroke-miterlimit:10;stroke-dasharray:none;stroke-opacity:1"
             id="path563" /></g><g
           id="g565"
           transform="translate(191.3291,311.4448)"><path
             d="M 0,0 V 14.407"
             style="fill:none;stroke:#000000;stroke-width:15;stroke-linecap:round;stroke-linejoin:round;stroke-miterlimit:10;stroke-dasharray:none;stroke-opacity:1"
             id="path567" /></g><path
           d="M 125.11,449.16 H 19.167 v 30.417 H 125.11 Z"
           style="fill:none;stroke:#000000;stroke-width:15;stroke-linecap:round;stroke-linejoin:round;stroke-miterlimit:10;stroke-dasharray:none;stroke-opacity:1"
           id="path569" /><path
           d="m 492.833,449.16 h -109.51 v 30.417 h 109.51 z"
           style="fill:none;stroke:#000000;stroke-width:15;stroke-linecap:round;stroke-linejoin:round;stroke-miterlimit:10;stroke-dasharray:none;stroke-opacity:1"
           id="path571" /><path
           d="M 383.323,449.16 H 125.11 v 55.336 h 258.213 z"
           style="fill:none;stroke:#000000;stroke-width:15;stroke-linecap:round;stroke-linejoin:round;stroke-miterlimit:10;stroke-dasharray:none;stroke-opacity:1"
           id="path573" /><g
           id="g575"
           transform="translate(210.7324,476.4639)"><path
             d="M 0,0 H 86.969"
             style="fill:none;stroke:#000000;stroke-width:15;stroke-linecap:round;stroke-linejoin:round;stroke-miterlimit:10;stroke-dasharray:none;stroke-opacity:1"
             id="path577" /></g><path
           d="m 223.323,385.512 h -59.22 v 34.254 h 59.22 z"
           style="fill:none;stroke:#000000;stroke-width:15;stroke-linecap:round;stroke-linejoin:round;stroke-miterlimit:10;stroke-dasharray:none;stroke-opacity:1"
           id="path579" /><g
           id="g581"
           transform="translate(413.3574,394.7729)"><path
             d="M 0,0 H 44.553"
             style="fill:none;stroke:#000000;stroke-width:15;stroke-linecap:round;stroke-linejoin:round;stroke-miterlimit:10;stroke-dasharray:none;stroke-opacity:1"
             id="path583" /></g><g
           id="g585"
           transform="translate(413.3574,362.5088)"><path
             d="M 0,0 H 44.553"
             style="fill:none;stroke:#000000;stroke-width:15;stroke-linecap:round;stroke-linejoin:round;stroke-miterlimit:10;stroke-dasharray:none;stroke-opacity:1"
             id="path587" /></g><g
           id="g589"
           transform="translate(49.4395,394.7729)"><path
             d="M 0,0 H 44.552"
             style="fill:none;stroke:#000000;stroke-width:15;stroke-linecap:round;stroke-linejoin:round;stroke-miterlimit:10;stroke-dasharray:none;stroke-opacity:1"
             id="path591" /></g><g
           id="g593"
           transform="translate(49.4395,362.5088)"><path
             d="M 0,0 H 44.552"
             style="fill:none;stroke:#000000;stroke-width:15;stroke-linecap:round;stroke-linejoin:round;stroke-miterlimit:10;stroke-dasharray:none;stroke-opacity:1"
             id="path595" /></g><g
           id="g597"
           transform="translate(260.5947,402.6392)"><path
             d="M 0,0 H 79.564"
             style="fill:none;stroke:#000000;stroke-width:15;stroke-linecap:round;stroke-linejoin:round;stroke-miterlimit:10;stroke-dasharray:none;stroke-opacity:1"
             id="path599" /></g></g></g></g></svg>
